<svg width="721" height="721" xmlns="http://www.w3.org/2000/svg" xmlns:xlink="http://www.w3.org/1999/xlink" xml:space="preserve" overflow="hidden"><g><path d="M416.974 360.5 669.324 108.551C676.867 101.008 681.105 90.7779 681.105 80.1111 681.105 69.4443 676.867 59.2145 669.324 51.6717 661.782 44.1292 651.552 39.8918 640.885 39.8918 630.218 39.8918 619.988 44.1292 612.445 51.6717L360.498 304.022 108.548 51.6717C101.006 44.1292 90.7755 39.8918 80.1087 39.8918 69.4419 39.8918 59.2117 44.1292 51.6693 51.6717 44.1268 59.2145 39.8892 69.4443 39.8892 80.1111 39.8892 90.7779 44.1268 101.008 51.6693 108.551L304.019 360.5 51.6693 612.449C47.9149 616.175 44.9351 620.605 42.9015 625.484 40.8679 630.366 39.8209 635.602 39.8209 640.889 39.8209 646.176 40.8679 651.411 42.9015 656.294 44.9351 661.173 47.9149 665.603 51.6693 669.328 55.3928 673.082 59.823 676.062 64.7041 678.096 69.5853 680.131 74.821 681.177 80.1087 681.177 85.3964 681.177 90.6321 680.131 95.5133 678.096 100.394 676.062 104.825 673.082 108.548 669.328L360.498 416.978 612.445 669.328C616.171 673.082 620.601 676.062 625.484 678.096 630.362 680.131 635.598 681.177 640.885 681.177 646.176 681.177 651.411 680.131 656.29 678.096 661.173 676.062 665.603 673.082 669.324 669.328 673.082 665.603 676.062 661.173 678.093 656.294 680.127 651.411 681.173 646.176 681.173 640.889 681.173 635.602 680.127 630.366 678.093 625.484 676.062 620.605 673.082 616.175 669.324 612.449L416.974 360.5Z" fill="#081C48"/></g></svg>