<svg width="1200" height="720" xmlns="http://www.w3.org/2000/svg" xmlns:xlink="http://www.w3.org/1999/xlink" xml:space="preserve" overflow="hidden"><g><path d="M540 120 1140 120C1155.91 120 1171.18 113.678 1182.43 102.427 1193.68 91.1742 1200 75.9132 1200 60 1200 44.087 1193.68 28.8257 1182.43 17.5735 1171.18 6.32136 1155.91 0 1140 0L540 0C524.087 0 508.826 6.32136 497.573 17.5735 486.322 28.8257 480 44.087 480 60 480 75.9132 486.322 91.1742 497.573 102.427 508.826 113.678 524.087 120 540 120ZM1140 600 60 600C44.087 600 28.8257 606.324 17.5735 617.574 6.32136 628.824 0 644.088 0 660 0 675.912 6.32136 691.176 17.5735 702.426 28.8257 713.676 44.087 720 60 720L1140 720C1155.91 720 1171.18 713.676 1182.43 702.426 1193.68 691.176 1200 675.912 1200 660 1200 644.088 1193.68 628.824 1182.43 617.574 1171.18 606.324 1155.91 600 1140 600L1140 600ZM60 420 1140 420C1155.91 420 1171.18 413.678 1182.43 402.427 1193.68 391.174 1200 375.913 1200 360 1200 344.087 1193.68 328.826 1182.43 317.573 1171.18 306.322 1155.91 300 1140 300L60 300C44.087 300 28.8257 306.322 17.5735 317.573 6.32136 328.826 0 344.087 0 360 0 375.913 6.32136 391.174 17.5735 402.427 28.8257 413.678 44.087 420 60 420Z" fill="#081C48"/></g></svg>